<svg version="1.2" xmlns="http://www.w3.org/2000/svg" viewBox="0 0 578 992" width="578" height="992"><defs><clipPath clipPathUnits="userSpaceOnUse" id="cp1"><path d="m575.18 664.91c20.83 158.05-90.4 303.07-248.46 323.9-158.05 20.83-303.06-90.4-323.9-248.46-20.83-158.05 90.41-303.06 248.46-323.9 158.05-20.83 303.07 90.41 323.9 248.46z"/></clipPath></defs><style>.a{fill:#0d83b8}.b{fill:#e8eff3}.c{fill:#c1bb9d}.d{fill:#fefefe}.e{fill:#231f20}</style><g clip-path="url(#cp1)"><path class="a" d="m575.2 664.9c20.8 158.1-90.4 303.1-248.5 323.9-158 20.8-303-90.4-323.9-248.4-20.8-158.1 90.4-303.1 248.5-323.9 158-20.9 303 90.4 323.9 248.4z"/><path class="b" d="m131 427.3l255.8-30 108 90.1 9.3 24.3-13 3-19.8-12-19.7-10.8-1.6 16 5.5 32.2-38.2 6.2-2.3-26.5-30.3-8.2-15.4-6.4-18.1-17.1-41-5.6-16.4 22.9 8.8 20.7-7.8 14.5 18.6 12.1-27.8 11-12.9-23.9-21.5-15.4-27.3-3.7-30.7-20.4-40.3 17.5-2.7-20.3-20.7-9.5-31.1 13.9-16 16.7-23.7 5.6 20.2-22.2z"/><path class="c" d="m62.8 558.1l5.6-12.2 21.1-13.2 12.1-10.9 11.9 3.6 2.3 10.1 11.1-2.5 2.9 5.8 15.7 9.4-3.9-14 12.8-13.1 10.4 7.9 8.8 19.6 9.6-13.7 20.8-7.9 4.9 13.9 10.6-6.6 16.1 4.1 9.7 18.4-27.4 4.7-15.5 1-21.3 19.4-0.1 14.6 18.1 3.8 10.2 14.2 16.5 7.2-2.8-21.4-6.8-19.9 21.5-10.1 14.2 12.7 14.9-5.1 16.7 9.2 21.8 15.8 20.4 4.6-9.2 9.5-19.1-11-17.2 3.3-9 10.5 12.7 1.5-1 8.4 15.7 1.1-18.4 18-3.1-16.2-9.6 13.7-2.2 7.5 4.5 9.8-8.8 4.3-18.4 18 11.5 16.1-2.5 12.8-21 14.2 7.1 14.6 7.8 11.5-2.2 14.8-17.3-20.6-23.1-2.1-16.5 8.4-22.8 8.2 2.2 24.6 12.2 14 9.7 10.1 12.7-5.8 4.6-12.1 14.6 0.2-8.2 25 19.4 4.7 19.7 0.5-3.7 19.1 11 12.1 5.4-5.9 4.6 3.5-10.4 7.6-17.9-10.1-11.1-13-16.8-2-18.2-3.8-8.1-6.2-13.1 2.8-41.7-17.4-5.3-24.2-27.4-34.8 1.2 9.2 10.1 21.5-22.3-27.1-4.5-34.7-14.7-8.5 1.3-37.5 15.4-24.9-6.1-38.6 2.9-17 3.2-23.3-20.8-0.3-14.3 1.8 14.4-9.1z"/><path class="d" d="m207.7 475.7l-1.7 10.6-15-3.3z"/><path class="d" d="m319.9 476.4l4.9-10 21.4 4.5-9.7 5.4 8.3 8.3-16.8-2z"/><path class="d" d="m372.2 495.5l-6.1 0.8-1.1-8.2z"/><path class="d" d="m485.2 525.2l11.9 16.7-16.1 7-8-14.8z"/><path class="d" d="m390.9 533.9l12 16.7-16.1 7-8.1-14.8z"/><path class="d" d="m325.9 497.3l11.9 16.7-16.1 6.9-8-14.7z"/><path class="d" d="m127.6 497l11.9 16.7-16.1 7-8-14.7z"/><path class="d" d="m263.5 973.2l17.6 10.5-12 12.9-13.2-10.4z"/><path class="d" d="m467.6 511.7l9.1 4.9-9.6 9.8-7.3-8.8z"/><path class="c" d="m548.9 536.1l32.1 101.6 3.2 63.9-6.5 21.6-12.6-1.4-3.9-21.3-16.5-15.5-9.1-21.6-12.1-36.8-31.7-43.6 12.4-7.8-4.7-20.2 12-19.2 0.5-4.2z"/><path class="c" d="m254.7 777.7l18 2.8 9.2 7.1-14 3.9-16.2-5.1-19.7 0.5z"/><path class="c" d="m291 785.4l11.8-4.7 20.1 2.6-9.3 8.4-19.4 2.6z"/><path class="c" d="m262.4 686.4l12.4-7.9 2.7 4.9z"/><path class="c" d="m265.1 699.5l13.3-1.7-3.8 10.9z"/><path class="c" d="m384.7 779.3l13.3-1.8-3.8 10.9z"/><path class="c" d="m282.5 657.8l13.6-7 0.2 9.3-12.7 5.9z"/><path class="c" d="m59.5 651.4l13.6-7 0.2 9.3-12.7 5.8z"/><path class="c" d="m332.1 617l16.5-1.1 1.3 10.2-9.6-1.9z"/><path class="c" d="m292.3 833.9l2.2-6.5 16.4-2.2 3.6-11.9 4.9-10 10.9 3.8 19.8 0.5 11.5-6.7 17.7-7.6 8.1 6.2 14.6 8.5 13.1 4.5 10.4-7.6 11.3-0.5 6.2 7.5 21.1 10.7 15.6-15.5 30.3 1.2 0.2 24.9-8.5 14.6 5.1 30.5-38.6 22.7-10.7 21.1-17.1 11.6-8.3 24-21.8 15.3-11.5 15-27.3 14-17.1-4 14.6-7.1 4.9-33.9 0.9-25-15.5-7.3h-23.9l-13.5-7.5-25-9.2-9.9-12.2 5.4-29.8 6.3-15.3-4.9-12.9z"/><path class="d" d="m286.3 997.1l5.5-7.1 17.2-5.7 17.7 4.5z"/><path class="d" d="m344.4 973.6l0.8 5.9-12.6 1.7z"/></g><path class="d" d="m406.7 298.6l22.3 28.1 13.6 48.6 3.9 83.6 25.3 13.6 2.9 6.8-15.5 10.7-6.8 6.8-16.6-4.8-5.8 3.9-21.4-2-8.7-12.6-61.3-4.9-38.9-0.9-99.1 1.9-18.5 3.9-23.3-7.8h-25.3l-3.9-8.7-5.8-9.8 17.5-15.5 4.9-24.3 0.9-60.3 12.7-45.7 28.2-16.5z"/><path class="b" d="m134.5 450.4l-3.5 5.5 5.5 2 4.5-2-1 10 17.9-0.5 7-11 0.5 13 15 6 2.5-8 8 4.5 39-8 60-144.4 112.4 14 17.3 49.5-1.3 56-7.5 32.9-6 1.5 4.5 9.5 4-2v5.5l13 2.5 7-2.5v-8.5l4.5 8.5 11 1.5-1.5-11 3.5 6 3.5 5 8.5-6-2-5 5.5 2 3-3.5 2 6-22 14-14-5.5-7.5 4-19-1-6-14-78.9-4.5h-44l-78.5 1-18.5 5-23-8-24.9 0.5-8-14.5z"/><path class="b" d="m195.4 316.5l0.5 155.4-21-25.5-5.7-44.4 3.2-34 1.3-20 17.2-36.7z"/><path class="d" d="m374.6 53.6l4.9 6.8-1 12.6-1 35-7.8 37.9 13.6 16.6 8.8 36.9 16.5 52.5v67.1 103l-12.6 70.9-2.9 25.3-29.2 7.8-36-1.9-18.4-7.8-2.9-17.5 12.6-9.7 1-30.2-8.8-80.6-15.5-26.3-5.9-27.2-4.8 24.3-12.7 36-0.9 103 6.8 21.4-14.6 13.6-24.3 4.8-29.2-0.9-18.4-13.6 5.8-25.3-10.7-59.3-8.8-107.9 4.9-106.9 13.6-53.5 15.6-31.1 8.7-47.6 10.7-19.4z"/><path class="b" d="m246.9 40.3l21.5-23.3 70.9-1.7 24 17.5 14.8 30-3.5 34.8-7.1 19.7-24 31.5-12.2 12.7-16.3 5.8-11.9-5.7-27.3-14.8-33.9-32.8-9.1-34.4 6.8-26.8z"/><path class="d" d="m235.2 58.6l-17.1-3.5-6.8-12.7 0.5-12.6 14.6-6.8 15.5 9.2"/><path class="d" d="m362.9 20.6l10.7-5.4h12.7l4.8 11.7-4.4 11.6-14 11.9"/><path class="d" d="m247.3 21.5l22.3-21.4 71 1 23.3 17.5 13.6 29.2-4.9 33-7.7 18.5-25.3 29.2-12.6 11.6-16.6 4.9-11.6-5.9-26.8-15-32.5-32.6-7.8-33 7.8-25.3z"/><path class="e" d="m302.3 59.8h22.7l6.5 9-12.3 16.2-9.1 0.7-15.5-13z"/><path class="e" d="m297.3 102.5c-0.9 0-1.7-0.7-1.9-1.6-0.2-1 0.5-2.1 1.5-2.3l16.5-3.6h0.9l12.9 3.1c1 0.3 1.7 1.3 1.4 2.4-0.2 1-1.3 1.7-2.3 1.4l-12.5-3-16.1 3.5q-0.2 0.1-0.4 0.1z"/><path class="e" d="m313.8 98.8c-1 0-1.9-0.9-1.9-1.9v-16.6c0-1 0.9-1.9 1.9-1.9 1.1 0 2 0.9 2 1.9v16.6c0 1-0.9 1.9-2 1.9z"/><path class="e" d="m268.6 34.2l8.8-0.5 2.9 3.9-2.9 3.9-5.8 0.9-4.4-2.9z"/><path class="e" d="m338.4 32.6l10.4 0.6 0.5 4.4-4.4 2.9-4.8-1.5-2.4-2.9z"/><path class="b" d="m233.7 47.3l-6.9-0.5-2.9-7.3 4.9-4.4 7.3 3z"/><path class="b" d="m370.2 27.4l6.8-3.4 4.4 3.8-3.4 5.9-5.4 3.4z"/><path class="e" d="m297.7 102.5q-0.5 0-1.1-0.2l-7.3-3.8c-0.9-0.5-1.3-1.6-0.8-2.6 0.5-0.9 1.6-1.2 2.5-0.8l7.4 3.9c0.9 0.4 1.2 1.6 0.8 2.5-0.3 0.5-0.9 0.9-1.5 1z"/><path class="e" d="m334 97.6q-0.2 0.4-0.6 0.6l-5.7 3.5c-0.7 0.5-1.7 0.2-2.2-0.5-0.5-0.7-0.3-1.6 0.4-2l5.7-3.5c0.8-0.4 1.7-0.2 2.2 0.5 0.3 0.4 0.4 0.9 0.2 1.4z"/><path class="b" d="m196.9 512.9l11.7 7.1 3.3-6.3 0.8 9 8.6 1.1 12.7-0.4 3.4-9.7 2.6 8.6h6.8l12-4.1 1.1-9.4 3.8 7.9 11.2-7.9-11.6 12.4-24.8 5.2-28.1-0.7-6.3-6z"/><path class="b" d="m312.4 511.2l4-3.3-2.5 6 13 4.8 4-7.8-1 7.8 15.2 2.7 17.3-1.5 1.2-6.5 1.5 6.8 12.3-1.3 13-1.5-26.7 7.7-35.4-2.2-17.7-8.7-2-15.3z"/><path class="b" d="m268.4 429l-6-32 2-26 6-39 14-45 1-15.5 3 6 1-10 3.5-7 3.5 40.5 16 25 10 47-3 51-6.3-50.5-16.2-24-7-34.5-8 37.5-11.5 25.5z"/></svg>
